<svg xmlns="http://www.w3.org/2000/svg" xmlns:xlink="http://www.w3.org/1999/xlink" viewBox="0,0,256,256" width="30px" height="30px" fill-rule="nonzero"><g fill="#efeadf" fill-rule="nonzero" stroke="none" stroke-width="1" stroke-linecap="butt" stroke-linejoin="miter" stroke-miterlimit="10" stroke-dasharray="" stroke-dashoffset="0" font-family="none" font-weight="none" font-size="none" text-anchor="none" style="mix-blend-mode: normal"><path d="M0,256v-256h256v256z" id="bgRectangle"></path></g><g fill="none" fill-rule="nonzero" stroke="none" stroke-width="1" stroke-linecap="butt" stroke-linejoin="miter" stroke-miterlimit="10" stroke-dasharray="" stroke-dashoffset="0" font-family="none" font-weight="none" font-size="none" text-anchor="none" style="mix-blend-mode: normal"><g transform="scale(3.2,3.2)"><path d="M8,65.5c-3.032,0 -5.5,-2.467 -5.5,-5.5v-40c0,-3.033 2.468,-5.5 5.5,-5.5h64c3.032,0 5.5,2.467 5.5,5.5v40c0,3.033 -2.468,5.5 -5.5,5.5z" fill="#ffffff"></path><path d="M72,15c2.757,0 5,2.243 5,5v40c0,2.757 -2.243,5 -5,5h-64c-2.757,0 -5,-2.243 -5,-5v-40c0,-2.757 2.243,-5 5,-5h64M72,14h-64c-3.314,0 -6,2.686 -6,6v40c0,3.314 2.686,6 6,6h64c3.314,0 6,-2.686 6,-6v-40c0,-3.314 -2.686,-6 -6,-6z" fill-opacity="0.76078" fill="#c2c2c2"></path><path d="M24.2,30.002l-4.802,14.239c0,0 -1.194,-5.823 -1.315,-6.579c-2.734,-6.201 -6.794,-6.056 -6.794,-6.056l4.756,18.394v-0.004h5.78l7.993,-19.995h-5.618zM28.777,50h5.25l3.175,-19.998h-5.316zM65.933,30.002h-5.524l-8.613,19.998h5.215l1.075,-2.856h6.576l0.56,2.856h4.778zM59.542,43.324l2.858,-7.557l1.496,7.557zM44.65,35.83c0,-1.102 0.911,-1.922 3.522,-1.922c1.697,0 3.641,1.225 3.641,1.225l0.852,-4.198c0,0 -2.483,-0.936 -4.921,-0.936c-5.521,0 -8.368,2.625 -8.368,5.949c0,6.01 7.276,5.187 7.276,8.274c0,0.529 -0.422,1.753 -3.452,1.753c-3.039,0 -5.045,-1.107 -5.045,-1.107l-0.905,4.029c0,0 1.944,1.102 5.7,1.102c3.765,0 8.988,-2.8 8.988,-6.821c-0.001,-4.839 -7.288,-5.188 -7.288,-7.348z" fill="#003f92"></path><g fill="#1c00c3"><path d="M18.723,40.883l-1.728,-8.705c0,0 -0.799,-1.871 -2.876,-1.871c-2.077,0 -8.119,0 -8.119,0c0,0 10.313,3.113 12.723,10.576z"></path></g></g></g></svg>